<?xml version="1.0" encoding="UTF-8"?>
<!DOCTYPE svg PUBLIC "-//W3C//DTD SVG 1.1 Tiny//EN" "http://www.w3.org/Graphics/SVG/1.1/DTD/svg11-tiny.dtd">
<svg width="72" height="60" viewBox="0 0 72 60">
<linearGradient id="_18" gradientUnits="userSpaceOnUse" x1="-4.96" y1="-11.63" x2="35.54" y2="29.54">
<stop stop-color="#FFFFFF" offset="0"/>
<stop stop-color="#A0C4E0" offset="0.35"/>
<stop stop-color="#7084B8" offset="0.7"/>
<stop stop-color="#003C70" offset="1"/>
</linearGradient>
<path fill="url(#_18)" d="M1.325,1.188v57.625h69.349V1.188H1.325z M69.727,2.188v55.625H2.271V2.188H69.727z"/>
<rect x="3.16" y="3.144" fill="#FFFFFF" width="65.645" height="53.717"/>
<linearGradient id="_19" gradientUnits="userSpaceOnUse" x1="81.49" y1="63.31" x2="24.32" y2="21.47">
<stop stop-color="#FFFFFF" offset="0"/>
<stop stop-color="#A0C4E0" offset="0.35"/>
<stop stop-color="#7084B8" offset="0.7"/>
<stop stop-color="#003C70" offset="1"/>
</linearGradient>
<path fill="url(#_19)" d="M2.213,2.144v55.717h67.538V2.144H2.213z M68.805,3.144v53.717H3.16V3.144H68.805z"/>
<linearGradient id="_20" gradientUnits="userSpaceOnUse" x1="29.3" y1="25.97" x2="34.58" y2="36.38">
<stop stop-color="#A0C4E0" offset="0.1"/>
<stop stop-color="#7084B8" offset="0.71"/>
<stop stop-color="#003C70" offset="0.99"/>
</linearGradient>
<path fill="url(#_20)" d="M14.352,33.699l0.736,1.302l14.227,3.978l10.53-7.776l-0.075-1.429c0,0-2.215-5.232-2.346-5.539 c0.292-0.17,7.105-4.16,7.105-4.16l-0.102-1.47l-19.552-3.548L14.352,33.699z"/>
<linearGradient id="_21" gradientUnits="userSpaceOnUse" x1="46.48" y1="34.72" x2="51.06" y2="43.73">
<stop stop-color="#A0C4E0" offset="0.1"/>
<stop stop-color="#7084B8" offset="0.71"/>
<stop stop-color="#003C70" offset="0.99"/>
</linearGradient>
<path fill="url(#_21)" d="M42.087,25.547c0,0,1.627,6.77,1.697,7.063C43.51,32.75,32.24,38.556,32.24,38.556l0.359,1.556 l13.705,5.965l11.662-19.673l-0.078-1.963l-6.825-2.337L42.087,25.547z"/>
<linearGradient id="_22" gradientUnits="userSpaceOnUse" x1="13.37" y1="32.08" x2="32.87" y2="41.14">
<stop stop-color="#FFFFFF" offset="0"/>
<stop stop-color="#A0C4E0" offset="0.35"/>
<stop stop-color="#7084B8" offset="0.7"/>
<stop stop-color="#003C70" offset="1"/>
</linearGradient>
<polygon fill="url(#_22)" points="14.582,33.698 15.223,34.83 29.273,38.759 29.092,37.495 "/>
<linearGradient id="_23" gradientUnits="userSpaceOnUse" x1="72.25" y1="16.33" x2="18.63" y2="28.67">
<stop stop-color="#FFFFFF" offset="0.15"/>
<stop stop-color="#A0C4E0" offset="1"/>
</linearGradient>
<polygon fill="url(#_23)" points="36.717,23.079 42.595,19.674 25.518,16.518 16.697,32.896 30.502,36.512 39.57,29.818 "/>
<linearGradient id="_24" gradientUnits="userSpaceOnUse" x1="69.89" y1="42.73" x2="20.55" y2="32.45">
<stop stop-color="#FFFFFF" offset="0"/>
<stop stop-color="#A0C4E0" offset="0.35"/>
<stop stop-color="#7084B8" offset="0.7"/>
<stop stop-color="#003C70" offset="1"/>
</linearGradient>
<path fill="url(#_24)" d="M18.393,30.045L16.784,32.8l13.673,3.67c0.347-0.234,0.594-0.415,0.719-0.51 C30.863,35.917,20.57,31.294,18.393,30.045z"/>
<path fill="#105C80" d="M23.918,30.787l2.039,2.121c1.498,0.498,4.688,1.425,7.105,1.56 c0.061,0.002,0.118,0.002,0.178,0.004c0.982-0.719,1.967-1.443,2.854-2.098C31.803,31.598,25.73,30.65,23.918,30.787z"/>
<polygon fill="#C0DCE0" points="28.959,31.822 30.592,32.006 32.594,34.179 30.842,33.991 "/>
<polygon fill="#309098" points="28.959,31.822 28.889,32.071 30.481,33.932 30.805,33.933 "/>
<path fill="#288498" d="M33.1,34.391c-1.842-0.126-4.975-0.771-7.03-1.552c-0.205,0.288-1.85,0.67-2.222,0.554 c0.506,0.672,3.641,1.833,6.363,2.448c0.338,0.068,0.659,0.123,0.975,0.166c0.69-0.509,1.43-1.052,2.175-1.601 C33.271,34.401,33.184,34.396,33.1,34.391z"/>
<linearGradient id="_25" gradientUnits="userSpaceOnUse" x1="23.28" y1="31.6" x2="25.15" y2="33.29">
<stop stop-color="#D8E8F0" offset="0"/>
<stop stop-color="#288498" offset="1"/>
</linearGradient>
<path fill="url(#_25)" d="M23.773,30.758c0,0,2.316,2.056,2.296,2.08c-0.292,0.321-1.138,0.954-1.937,0.817 c-0.846-0.584-0.908-1.527-0.908-1.527S23.343,31.36,23.773,30.758z"/>
<path fill="#C0DCE0" d="M32.969,34.058c-2.336-0.209-5.211-1.041-6.455-1.461l-1.723-1.564 c1.474-0.03,7.344,0.771,11.227,1.442c0.078-0.058,0.158-0.115,0.234-0.173c-4.289-0.773-10.469-1.717-12.447-1.54 l2.273,2.114c1.664,0.663,4.678,1.422,7.082,1.617c0.036,0.004,0.069,0.004,0.105,0.007c0.177-0.13,0.353-0.259,0.529-0.39 C33.521,34.099,33.244,34.081,32.969,34.058z"/>
<path fill="#FFFFFF" d="M36.945,23.704c-0.605,0.613-3.156,0.448-3.156,0.448s-8.658-1.026-10.996-2.672l1.2-2.251 c1.04-0.012,2.136,0.259,2.653,0.59c0.013-0.749,2.879-2.054,4.197-0.252c1.289-1.094,5.271-1.362,4.982,1.563 C38.984,21.519,36.945,23.704,36.945,23.704z"/>
<linearGradient id="_26" gradientUnits="userSpaceOnUse" x1="35.68" y1="25.68" x2="21.07" y2="28.27">
<stop stop-color="#2898A0" offset="0"/>
<stop stop-color="#084C60" offset="1"/>
</linearGradient>
<polygon fill="url(#_26)" points="30.584,32.431 37.542,19.503 24.52,28.993 "/>
<polygon fill="#309098" points="34.89,33.22 31.27,33.26 36.427,22.056 36.254,32.302 "/>
<linearGradient id="_27" gradientUnits="userSpaceOnUse" x1="2.66" y1="30.81" x2="50.99" y2="22.06">
<stop stop-color="#FFFFFF" offset="0.15"/>
<stop stop-color="#A0C4E0" offset="1"/>
</linearGradient>
<path fill="url(#_27)" d="M16.932,32.812l8.81-15.998l16.661,2.953l1.83-1.104l-19.25-3.385l-10.42,18.458l14.39,3.804 c0.492-0.362,1.073-0.79,1.706-1.255L16.932,32.812z"/>
<linearGradient id="_28" gradientUnits="userSpaceOnUse" x1="42.08" y1="17.84" x2="38.15" y2="27.09">
<stop stop-color="#FFFFFF" offset="0"/>
<stop stop-color="#486CA0" offset="0.71"/>
<stop stop-color="#205488" offset="0.99"/>
</linearGradient>
<polygon fill="url(#_28)" points="44.232,18.663 44.322,19.964 37.154,24.159 36.709,23.07 "/>
<linearGradient id="_29" gradientUnits="userSpaceOnUse" x1="34.08" y1="29.59" x2="34.62" y2="42.53">
<stop stop-color="#FFFFFF" offset="0"/>
<stop stop-color="#486CA0" offset="0.71"/>
<stop stop-color="#205488" offset="0.99"/>
</linearGradient>
<polygon fill="url(#_29)" points="39.551,29.804 39.639,31.104 29.273,38.759 28.922,37.539 "/>
<polygon fill="url(#_23)" points="55.553,25.249 49.131,23.082 42.324,25.671 44.017,32.716 34.158,37.792 45.006,42.313 "/>
<path fill="#288498" d="M41.658,34.837l-1.035-0.368l-4.932,2.533C38.661,37.163,41.658,34.837,41.658,34.837z"/>
<path fill="#C0DCE0" d="M38.316,35.652c0.908,0.021,1.686-0.132,2.461-0.403c0.273-0.102,0.564-0.235,0.881-0.412 c-0.262-0.115-1.039-0.371-1.039-0.371L38.316,35.652z"/>
<path fill="#105C80" d="M40.388,34.587l-1.325,0.691c0.67-0.065,1.313-0.205,1.915-0.451 C40.818,34.756,40.615,34.675,40.388,34.587z"/>
<path fill="url(#_24)" d="M37.207,36.707c-0.266-0.021-0.588-0.022-0.844-0.056l-2.061,1.055l10.752,4.578l1.49-2.377 C46.545,39.907,44.143,37.172,37.207,36.707z"/>
<path fill="url(#_27)" d="M57.674,24.589l-6.606-2.271c-0.556,0.217-1.286,0.503-2.093,0.816l6.374,2.217L44.953,42.152 l-10.574-4.483l-1.908,0.993l13.182,5.759L57.674,24.589z"/>
<linearGradient id="_33" gradientUnits="userSpaceOnUse" x1="54.14" y1="18.67" x2="49.2" y2="52.99">
<stop stop-color="#FFFFFF" offset="0"/>
<stop stop-color="#A0C4E0" offset="0.35"/>
<stop stop-color="#7084B8" offset="0.7"/>
<stop stop-color="#003C70" offset="1"/>
</linearGradient>
<polygon fill="url(#_33)" points="57.694,24.586 45.74,44.174 46.223,45.821 57.764,26.351 "/>
<linearGradient id="_34" gradientUnits="userSpaceOnUse" x1="19.04" y1="20.03" x2="47.66" y2="51.22">
<stop stop-color="#FFFFFF" offset="0"/>
<stop stop-color="#A0C4E0" offset="0.35"/>
<stop stop-color="#7084B8" offset="0.7"/>
<stop stop-color="#003C70" offset="1"/>
</linearGradient>
<polygon fill="url(#_34)" points="45.773,44.187 32.471,38.663 32.771,39.968 46.223,45.821 "/>
</svg>