<?xml version="1.0" encoding="UTF-8" standalone="no"?>
<!DOCTYPE svg PUBLIC "-//W3C//DTD SVG 1.1 Tiny//EN" "http://www.w3.org/Graphics/SVG/1.1/DTD/svg11-tiny.dtd">
<svg xmlns="http://www.w3.org/2000/svg" xmlns:xlink="http://www.w3.org/1999/xlink" baseProfile="tiny" height="44px" version="1.1" viewBox="0 0 44 44" width="44px" x="0px" y="0px">
<g>
<path d="M40.999,20.516c0-1.516-1.317-2.365-2.217-2.45l-0.01-11.99c0-0.552-0.448-1-1-1L6.007,5.089   c-0.476,0-0.999,0.396-0.999,0.999v26.843c0,0.555,0.523,1.005,1.009,1.005c0,0,6.411-0.005,7.088-0.005   c0,1.258-0.042,1.813,0.771,2.41c0,1.004,0.577,2.659,2.683,2.659c0.025,0,21.679-0.003,21.679-0.003   c1.669,0,2.761-1.152,2.761-2.481C40.999,36.494,40.999,20.534,40.999,20.516z" fill-opacity="0.2" stroke-opacity="0.2"/>
<path d="M6.016,30.777l0.001,2.152l8.098-0.003v1.964c0,0.414,0.337,0.75,0.752,0.75h0.018v0.798   c0,0-0.064,1.555,1.754,1.555h21.6c1.819,0,1.754-1.555,1.754-1.555v-3.159L6.016,30.777z" fill-opacity="0.5" stroke-opacity="0.5"/>
<linearGradient gradientUnits="userSpaceOnUse" id="SVGID_1_" x1="21.8945" x2="21.8945" y1="5.3208" y2="64.1475">
<stop offset="0" style="stop-color:#FFFFFF"/>
<stop offset="1" style="stop-color:#B2B2B2"/>
</linearGradient>
<polygon fill="url(#SVGID_1_)" points="37.782,31.912 6.017,31.924 6.007,6.012 37.772,6  "/>
<linearGradient gradientUnits="userSpaceOnUse" id="SVGID_2_" x1="21.8926" x2="21.8926" y1="19.2339" y2="4.6529">
<stop offset="0" style="stop-color:#DEEEF9"/>
<stop offset="0.1953" style="stop-color:#C2E7F8"/>
<stop offset="0.6144" style="stop-color:#7AD6F5"/>
<stop offset="1" style="stop-color:#33C5F3"/>
</linearGradient>
<polygon fill="url(#SVGID_2_)" points="35.66,29.276 8.135,29.286 8.125,8.648 35.654,8.64  "/>
<linearGradient gradientUnits="userSpaceOnUse" id="SVGID_3_" x1="23.3984" x2="23.3984" y1="8.5083" y2="35.9947">
<stop offset="0" style="stop-color:#79CD19"/>
<stop offset="1" style="stop-color:#1B6332"/>
</linearGradient>
<polygon fill="url(#SVGID_3_)" points="29.477,11.339 11.137,29.282 35.66,29.276 35.658,17.496  "/>
<linearGradient gradientUnits="userSpaceOnUse" id="SVGID_4_" x1="18.7227" x2="18.7227" y1="16.8872" y2="38.1738">
<stop offset="0" style="stop-color:#79CD19"/>
<stop offset="1" style="stop-color:#1B6332"/>
</linearGradient>
<polygon fill="url(#SVGID_4_)" points="13.434,13.741 29.311,29.292 8.135,29.286 8.137,19.021  "/>
<linearGradient gradientUnits="userSpaceOnUse" id="SVGID_5_" x1="27.438" x2="27.438" y1="15.6304" y2="42.5308">
<stop offset="0" style="stop-color:#E6E6F5"/>
<stop offset="1" style="stop-color:#333342"/>
</linearGradient>
<path d="M38.238,18.032h-21.6c-1.818,0-1.754,1.553-1.754,1.553v15.848c0,0-0.064,1.555,1.754,1.555h21.6   c1.819,0,1.754-1.555,1.754-1.555V19.585C39.992,19.585,40.057,18.032,38.238,18.032z" fill="url(#SVGID_5_)"/>
<path d="M39.298,19.565c0.004-0.019-0.016-0.288-0.136-0.469c-0.128-0.17-0.259-0.355-0.925-0.373   h-21.6c-0.667,0.018-0.798,0.203-0.926,0.373c-0.098,0.143-0.129,0.346-0.135,0.43v13.848l23.721-11.025v-2.765   C39.296,19.584,39.296,19.577,39.298,19.565z" fill="#FFFFFF" fill-opacity="0.15" stroke-opacity="0.15"/>
<linearGradient gradientUnits="userSpaceOnUse" id="SVGID_6_" x1="27.3267" x2="27.3267" y1="37.043" y2="24.6615">
<stop offset="0" style="stop-color:#5A5A6A"/>
<stop offset="0.5477" style="stop-color:#A4A4AD"/>
<stop offset="1" style="stop-color:#DDDDE1"/>
</linearGradient>
<path d="M39.771,18.763c-0.221-0.371-0.658-0.73-1.533-0.73h-21.6c-1.818,0-1.754,1.553-1.754,1.553v15.848   c0,0-0.018,0.452,0.249,0.868l0.554-0.422c-0.076-0.139-0.104-0.312-0.109-0.388V19.526c0.006-0.084,0.037-0.287,0.135-0.43   c0.128-0.17,0.259-0.355,0.926-0.373h21.6c0.605,0.016,0.768,0.17,0.889,0.325L39.771,18.763z" fill="url(#SVGID_6_)"/>
<path d="M22.302,28.112c0-3.822,3.104-6.919,6.937-6.919l0,0c3.834,0,6.939,3.097,6.939,6.919l0,0   c0,3.821-3.105,6.917-6.939,6.917l0,0C25.407,35.029,22.302,31.934,22.302,28.112L22.302,28.112z M22.769,28.112   c0.008,3.563,2.898,6.443,6.47,6.449l0,0c3.573-0.006,6.464-2.887,6.47-6.449l0,0c-0.006-3.563-2.896-6.444-6.47-6.451l0,0   C25.667,21.668,22.777,24.549,22.769,28.112L22.769,28.112z" fill="#FFFFFF" fill-opacity="0.25" stroke-opacity="0.25"/>
<path d="M34.365,28.112c0,2.822-2.293,5.109-5.124,5.109c-2.835,0-5.126-2.287-5.126-5.109   c0-2.823,2.291-5.109,5.126-5.109C32.072,23.003,34.365,25.289,34.365,28.112z" fill="#FFFFFF" fill-opacity="0.25" stroke-opacity="0.25"/>
<linearGradient gradientUnits="userSpaceOnUse" id="SVGID_7_" x1="29.2407" x2="29.2407" y1="33.0615" y2="25.352">
<stop offset="0" style="stop-color:#404040"/>
<stop offset="1" style="stop-color:#000000"/>
</linearGradient>
<ellipse cx="29.241" cy="28.112" fill="url(#SVGID_7_)" rx="4.296" ry="4.282"/>
<linearGradient gradientUnits="userSpaceOnUse" id="SVGID_8_" x1="29.2407" x2="29.2407" y1="35.3877" y2="20.1111">
<stop offset="0" style="stop-color:#676767"/>
<stop offset="1" style="stop-color:#000000"/>
</linearGradient>
<path d="M29.241,23.828c-2.371,0-4.296,1.919-4.296,4.284c0,2.364,1.925,4.282,4.296,4.282   c2.373,0,4.297-1.918,4.297-4.282C33.538,25.747,31.614,23.828,29.241,23.828z M29.241,31.924c-2.105,0-3.82-1.708-3.82-3.812   c0-2.1,1.715-3.809,3.82-3.809c2.106,0,3.82,1.709,3.82,3.809C33.061,30.216,31.347,31.924,29.241,31.924z" fill="url(#SVGID_8_)"/>
<path d="M31.326,28.109c0,1.149-0.936,2.078-2.085,2.078c-1.15,0-2.084-0.929-2.084-2.078c0-1.145,0.934-2.075,2.084-2.075   C30.39,26.034,31.326,26.965,31.326,28.109z"/>
<circle cx="25.197" cy="21.106" fill-opacity="0.2" r="1.608" stroke-opacity="0.2"/>
<linearGradient gradientUnits="userSpaceOnUse" id="SVGID_9_" x1="25.1968" x2="25.1968" y1="23.4219" y2="20.0526">
<stop offset="0" style="stop-color:#676767"/>
<stop offset="1" style="stop-color:#000000"/>
</linearGradient>
<circle cx="25.197" cy="21.106" fill="url(#SVGID_9_)" r="1.313"/>
<rect fill="#F2F2F2" height="2.451" width="4.916" x="33.474" y="19.462"/>
<path d="M32.746,26.63c-0.583-1.363-1.917-2.331-3.499-2.331   c-2.118,0-3.834,1.711-3.834,3.821c0,0.624,0.164,1.202,0.432,1.719L32.746,26.63z" fill="#FFFFFF" fill-opacity="0.25" stroke-opacity="0.25"/>
<linearGradient gradientUnits="userSpaceOnUse" id="SVGID_10_" x1="12.2798" x2="21.6919" y1="27.5088" y2="27.5088">
<stop offset="0" style="stop-color:#404040"/>
<stop offset="1" style="stop-color:#000000"/>
</linearGradient>
<path d="M19.807,33.885c0,0.414-0.337,0.749-0.752,0.749h-4.188c-0.415,0-0.752-0.335-0.752-0.749V21.134   c0-0.414,0.337-0.75,0.752-0.75h4.188c0.415,0,0.752,0.336,0.752,0.75V33.885z" fill="url(#SVGID_10_)"/>
<path d="M14.806,34.623V20.396c-0.384,0.031-0.691,0.344-0.691,0.738v12.751   C14.115,34.277,14.422,34.592,14.806,34.623z" fill="#FFFFFF" fill-opacity="0.25" stroke-opacity="0.25"/>
<rect fill="none" height="44" width="44" x="0"/>
</g>
</svg>
