<?xml version="1.0" encoding="utf-8"?>
<!-- Generator: Adobe Illustrator 13.0.0, SVG Export Plug-In  -->
<!DOCTYPE svg PUBLIC "-//W3C//DTD SVG 1.1 Tiny//EN" "http://www.w3.org/Graphics/SVG/1.1/DTD/svg11-tiny.dtd" [
	<!ENTITY ns_flows "http://ns.adobe.com/Flows/1.0/">
]>
<svg version="1.1" baseProfile="tiny"
	 xmlns="http://www.w3.org/2000/svg" xmlns:xlink="http://www.w3.org/1999/xlink" xmlns:a="http://ns.adobe.com/AdobeSVGViewerExtensions/3.0/"
	 x="0px" y="0px" width="44px" height="44px" viewBox="0 0 44 44" xml:space="preserve">
<defs>
</defs>
<rect fill="none" width="44" height="44"/>
<path fill-opacity="0.4" d="M27.559,18.137l-8.035,4.449l7.602,4.374c0.963-0.593,2.453-1.456,5.094-1.214
	c4.902,0.457,7.176,4.832,6.741,8.224c-0.546,4.343-4.208,7.077-8.746,6.265c-5.22-0.938-5.79-6.071-5.79-6.071l-9.852-5.358
	c0,0-1.722,0.887-4.112,0.812c-4.638-0.144-7.033-4.033-6.984-7.504c0.051-3.352,2.585-6.987,6.891-7.081
	c2.914-0.066,4.16,0.957,4.352,1.101l9.398-5.022c0.142-2.941,3.012-6.671,7.241-6.671c4.954,0,7.704,3.635,7.704,7.437
	c0,4.019-2.945,7.319-7.176,7.319C29.664,19.19,27.559,18.137,27.559,18.137z M14.432,27.105l11.239,5.763
	c0,4.089,3.204,5.933,5.739,5.933c3.8,0,5.672-2.648,5.905-5.168c0.263-2.869-2.081-6.21-5.957-6.167
	c-2.515,0.032-3.729,1.503-3.729,1.503l-10.907-5.734v-1.295l11.146-5.666c0.434,0.429,1.336,1.332,3.874,1.291
	c2.873-0.047,5.571-2.582,5.571-5.522c0-2.799-2.08-5.858-5.599-5.882c-3.558-0.022-6.097,2.295-6.021,6.242l-11.044,5.664
	c-0.789-0.656-1.617-1.256-3.91-1.256c-3.875,0-5.983,3.311-5.738,6.17c0.289,3.369,3.168,5.105,5.083,5.152
	C13.164,28.207,14.432,27.105,14.432,27.105z"/>
<path fill="#FFFFFF" d="M14.477,27.105l11.243,5.763c0,4.089,3.204,5.933,5.737,5.933c3.799,0,5.672-2.648,5.902-5.168
	c0.266-2.869-2.078-6.21-5.953-6.167c-2.51,0.032-3.73,1.503-3.73,1.503l-10.902-5.734v-1.295l11.141-5.666
	c0.431,0.429,1.338,1.332,3.874,1.291c2.872-0.047,5.571-2.582,5.571-5.522c0-2.799-2.078-5.858-5.597-5.882
	c-3.56-0.022-6.097,2.295-6.024,6.242l-11.043,5.664c-0.788-0.656-1.615-1.256-3.91-1.256c-3.877,0-5.984,3.311-5.739,6.17
	c0.285,3.369,3.165,5.105,5.083,5.152C13.21,28.207,14.477,27.105,14.477,27.105z"/>
</svg>
