<?xml version="1.0" encoding="UTF-8"?>
<!DOCTYPE svg PUBLIC "-//W3C//DTD SVG 1.1 Tiny//EN" "http://www.w3.org/Graphics/SVG/1.1/DTD/svg11-tiny.dtd">
<svg width="44" height="44" viewBox="0 0 44 44">
<linearGradient id="_27" gradientUnits="userSpaceOnUse" x1="19.44" y1="29.66" x2="17" y2="39.53">
<stop stop-color="#AABBD7" offset="0"/>
<stop stop-color="#92A5CC" offset="0.26"/>
<stop stop-color="#6C83BB" offset="0.71"/>
<stop stop-color="#637DB5" offset="0.76"/>
<stop stop-color="#4C6EA4" offset="0.83"/>
<stop stop-color="#265689" offset="0.91"/>
<stop stop-color="#003D6D" offset="0.99"/>
</linearGradient>
<path d="M31.365,9.328c0.02-0.501,0.116-3.025,0.116-3.025l-9.899-1.449l-0.076,0.023l-2.35,0.731 c0,0-1.537,5.117-1.696,5.648c-0.526-0.091-4.199-0.722-4.199-0.722L9.392,11.95c0,0,0.993,4.291,1.808,7.813 c-4.932,1.37-9.185,5.177-8.242,10.28c0.218,3.402,3.89,11.674,14.19,8.318c5.286-1.725,7-4.956,7.361-7.834l9.3,2.858 l7.367-22.577C41.176,10.809,31.941,9.414,31.365,9.328z" fill="url(#_27)"/>
<linearGradient id="_28" gradientUnits="userSpaceOnUse" x1="13.2" y1="19.43" x2="38.79" y2="19.43">
<stop stop-color="#FFFFFF" offset="0"/>
<stop stop-color="#F4F8FB" offset="0.19"/>
<stop stop-color="#D6E4F0" offset="0.52"/>
<stop stop-color="#A7C5DF" offset="0.96"/>
<stop stop-color="#A2C2DD" offset="1"/>
</linearGradient>
<polygon fill="url(#_28)" points="13.202,26.862 19.38,5.882 29.431,7.495 29.358,10.608 38.786,12.188 33.649,32.974   "/>
<linearGradient id="_29" gradientUnits="userSpaceOnUse" x1="27.34" y1="26.41" x2="8.66" y2="10.59">
<stop stop-color="#E2E6E4" offset="0"/>
<stop stop-color="#A3740A" offset="1"/>
</linearGradient>
<polygon fill="url(#_29)" points="33.651,32.776 13.101,26.853 9.712,12.214 30.169,16.313 "/>
<linearGradient id="_30" gradientUnits="userSpaceOnUse" x1="21.43" y1="13.87" x2="23.93" y2="8.2">
<stop stop-color="#E2E6E4" offset="0"/>
<stop stop-color="#A3740A" offset="1"/>
</linearGradient>
<polygon fill="url(#_30)" points="33.63,14.431 13.229,10.931 9.712,12.214 30.224,16.393 "/>
<linearGradient id="_31" gradientUnits="userSpaceOnUse" x1="24.76" y1="7.68" x2="25.94" y2="4.47">
<stop stop-color="#FFFFFF" offset="0"/>
<stop stop-color="#E6EEF6" offset="0.31"/>
<stop stop-color="#A5C4DE" offset="0.97"/>
<stop stop-color="#A2C2DD" offset="1"/>
</linearGradient>
<polygon fill="url(#_31)" points="31.175,6.61 21.599,5.207 19.399,5.893 29.431,7.495 "/>
<linearGradient id="_32" gradientUnits="userSpaceOnUse" x1="34.56" y1="12.33" x2="35.77" y2="9.04">
<stop stop-color="#FFFFFF" offset="0"/>
<stop stop-color="#E6EEF6" offset="0.31"/>
<stop stop-color="#A5C4DE" offset="0.97"/>
<stop stop-color="#A2C2DD" offset="1"/>
</linearGradient>
<polygon fill="url(#_32)" points="40.833,11.128 31.058,9.653 29.358,10.608 38.786,12.188 "/>
<linearGradient id="_33" gradientUnits="userSpaceOnUse" x1="38.68" y1="22.04" x2="30.43" y2="24.9">
<stop stop-color="#E6EEF4" offset="0"/>
<stop stop-color="#DAD9CB" offset="0.06"/>
<stop stop-color="#C3AE79" offset="0.2"/>
<stop stop-color="#B28F3D" offset="0.32"/>
<stop stop-color="#A77B18" offset="0.4"/>
<stop stop-color="#A3740A" offset="0.44"/>
<stop stop-color="#866408" offset="0.56"/>
<stop stop-color="#645107" offset="0.72"/>
<stop stop-color="#4F4505" offset="0.85"/>
<stop stop-color="#474105" offset="0.94"/>
</linearGradient>
<polygon fill="url(#_33)" points="33.63,14.431 33.651,33.134 30.171,16.421 "/>
<linearGradient id="_34" gradientUnits="userSpaceOnUse" x1="28.63" y1="13.84" x2="39.65" y2="24.36">
<stop stop-color="#A2C2DD" offset="0"/>
<stop stop-color="#8CA9CF" offset="0.26"/>
<stop stop-color="#6C83BB" offset="0.67"/>
<stop stop-color="#637DB5" offset="0.72"/>
<stop stop-color="#4C6EA4" offset="0.79"/>
<stop stop-color="#265689" offset="0.88"/>
<stop stop-color="#003D6D" offset="0.96"/>
</linearGradient>
<polygon fill="url(#_34)" points="40.833,11.128 33.659,33.007 38.786,12.188 "/>
<linearGradient id="_35" gradientUnits="userSpaceOnUse" x1="17.92" y1="2.09" x2="42.15" y2="14.88">
<stop stop-color="#FFFFFF" offset="0"/>
<stop stop-color="#E4EDF5" offset="0.1"/>
<stop stop-color="#B4CEE4" offset="0.28"/>
<stop stop-color="#A2C2DD" offset="0.38"/>
<stop stop-color="#8CA9CF" offset="0.5"/>
<stop stop-color="#6C83BB" offset="0.71"/>
<stop stop-color="#637DB5" offset="0.76"/>
<stop stop-color="#4C6EA4" offset="0.83"/>
<stop stop-color="#265689" offset="0.91"/>
<stop stop-color="#003D6D" offset="0.99"/>
</linearGradient>
<polygon fill="url(#_35)" points="29.431,7.495 29.358,10.608 31.058,9.653 31.175,6.61 "/>
<linearGradient id="_36" gradientUnits="userSpaceOnUse" x1="18.46" y1="30.54" x2="35.46" y2="12.87">
<stop stop-color="#E2E6E4" offset="0"/>
<stop stop-color="#A3740A" offset="1"/>
</linearGradient>
<polygon fill="url(#_36)" points="13.202,26.862 17.071,13.718 30.198,16.417 33.659,33.007 "/>
<linearGradient id="_37" gradientUnits="userSpaceOnUse" x1="25.59" y1="30.39" x2="3.17" y2="35.51">
<stop stop-color="#FFFFFF" offset="0"/>
<stop stop-color="#E0EAF3" offset="0.11"/>
<stop stop-color="#A2C2DD" offset="0.35"/>
<stop stop-color="#8CA9CF" offset="0.48"/>
<stop stop-color="#6C83BB" offset="0.7"/>
<stop stop-color="#637DB5" offset="0.75"/>
<stop stop-color="#4C6EA4" offset="0.82"/>
<stop stop-color="#265689" offset="0.91"/>
<stop stop-color="#003D6D" offset="0.99"/>
</linearGradient>
<path d="M3.17,29.995c0.219,2.925,3.485,11.535,13.904,8.141c10.53-3.432,6.507-13.166,6.507-13.166 L3.17,29.995z" fill="url(#_37)"/>
<linearGradient id="_38" gradientUnits="userSpaceOnUse" x1="9.24" y1="44.17" x2="13.95" y2="24.98">
<stop stop-color="#FFFFFF" offset="0"/>
<stop stop-color="#FAFCFD" offset="0.19"/>
<stop stop-color="#EDF3F8" offset="0.41"/>
<stop stop-color="#D6E4F0" offset="0.63"/>
<stop stop-color="#B7D0E5" offset="0.87"/>
<stop stop-color="#A2C2DD" offset="1"/>
</linearGradient>
<path d="M18.813,20.019c-4.831-1.702-11.194,0.225-14.209,4.307c-3.014,4.083-1.539,8.772,3.294,10.473 c4.831,1.704,11.19-0.224,14.208-4.307C25.119,26.411,23.647,21.722,18.813,20.019z" fill="url(#_38)"/>
<linearGradient id="_39" gradientUnits="userSpaceOnUse" x1="1.86" y1="40.99" x2="22.67" y2="13.04">
<stop stop-color="#FFFFFF" offset="0"/>
<stop stop-color="#E0EAF3" offset="0.11"/>
<stop stop-color="#A2C2DD" offset="0.35"/>
<stop stop-color="#8CA9CF" offset="0.48"/>
<stop stop-color="#6C83BB" offset="0.7"/>
<stop stop-color="#637DB5" offset="0.75"/>
<stop stop-color="#4C6EA4" offset="0.82"/>
<stop stop-color="#265689" offset="0.91"/>
<stop stop-color="#003D6D" offset="0.99"/>
</linearGradient>
<path d="M22.464,24.965C18.976,14.851-0.25,22.317,4.937,31.458L22.464,24.965z" fill="url(#_39)"/>
<linearGradient id="_40" gradientUnits="userSpaceOnUse" x1="10.74" y1="24.96" x2="21.18" y2="36.52">
<stop stop-color="#DCE8E4" offset="0"/>
<stop stop-color="#43910A" offset="1"/>
</linearGradient>
<path d="M22.421,24.932c-4.676-6.51-18.927-1.873-17.506,6.575 C10.521,38.537,24.16,32.616,22.421,24.932z" fill="url(#_40)"/>
<linearGradient id="_41" gradientUnits="userSpaceOnUse" x1="14.92" y1="20.22" x2="12.11" y2="48.05">
<stop stop-color="#E6EEF4" offset="0"/>
<stop stop-color="#C6DCC1" offset="0.08"/>
<stop stop-color="#91C06F" offset="0.21"/>
<stop stop-color="#6BAB33" offset="0.32"/>
<stop stop-color="#539E0E" offset="0.4"/>
<stop stop-color="#4A9900" offset="0.44"/>
<stop stop-color="#398419" offset="0.55"/>
<stop stop-color="#22663B" offset="0.71"/>
<stop stop-color="#135550" offset="0.85"/>
<stop stop-color="#0E4E58" offset="0.94"/>
</linearGradient>
<polygon fill="url(#_41)" points="17.413,24.109 12.088,28.479 10.683,33.601 15.654,29.533 "/>
<linearGradient id="_42" gradientUnits="userSpaceOnUse" x1="9.79" y1="29.77" x2="13.25" y2="29.77">
<stop stop-color="#E3DFE4" offset="0"/>
<stop stop-color="#C03A3A" offset="1"/>
</linearGradient>
<polygon fill="url(#_42)" points="11.631,27.354 9.786,32.669 13.255,26.863 "/>
<linearGradient id="_43" gradientUnits="userSpaceOnUse" x1="14.42" y1="32.34" x2="9.5" y2="28.34">
<stop stop-color="#E6EEF4" offset="0"/>
<stop stop-color="#D7A6A9" offset="0.15"/>
<stop stop-color="#CA6C6D" offset="0.29"/>
<stop stop-color="#C34848" offset="0.39"/>
<stop stop-color="#C03A3A" offset="0.44"/>
<stop stop-color="#9E372D" offset="0.53"/>
<stop stop-color="#6F331B" offset="0.66"/>
<stop stop-color="#4D300D" offset="0.78"/>
<stop stop-color="#382E05" offset="0.87"/>
<stop stop-color="#302D02" offset="0.94"/>
</linearGradient>
<polygon fill="url(#_43)" points="12.957,27.043 9.786,32.669 14.64,28.639 "/>
<linearGradient id="_44" gradientUnits="userSpaceOnUse" x1="17.24" y1="25.79" x2="12.24" y2="25.58">
<stop stop-color="#FFFFFF" offset="0"/>
<stop stop-color="#A2C2DD" offset="1"/>
</linearGradient>
<polygon fill="url(#_44)" points="14.64,28.639 16.596,22.809 12.894,27.005 "/>
<polygon fill="#FFFFFF" points="16.601,22.766 11.631,27.354 12.957,27.043 "/>
<linearGradient id="_45" gradientUnits="userSpaceOnUse" x1="11.41" y1="11.03" x2="22.9" y2="38.15">
<stop stop-color="#E6EEF4" offset="0"/>
<stop stop-color="#D7A6A9" offset="0.15"/>
<stop stop-color="#CA6C6D" offset="0.29"/>
<stop stop-color="#C34848" offset="0.39"/>
<stop stop-color="#C03A3A" offset="0.44"/>
<stop stop-color="#9E372D" offset="0.53"/>
<stop stop-color="#6F331B" offset="0.66"/>
<stop stop-color="#4D300D" offset="0.78"/>
<stop stop-color="#382E05" offset="0.87"/>
<stop stop-color="#302D02" offset="0.94"/>
</linearGradient>
<polygon fill="url(#_45)" points="20.574,30.942 19.734,30.673 19.252,31.269 20.016,31.513 "/>
<polygon fill="url(#_45)" points="7.979,26.904 6.596,26.459 6.213,27.089 7.603,27.535 "/>
<polygon fill="url(#_45)" points="17.869,24.025 18.68,22.862 17.979,22.616 17.168,23.783 "/>
<polygon fill="url(#_45)" points="10.305,33.627 9.751,34.418 10.536,34.545 11.028,33.839 "/>
<polygon fill="url(#_45)" points="12.383,23.859 11.97,22.721 11.294,22.954 11.705,24.091 "/>
<polygon fill="url(#_45)" points="15.173,33.698 15.339,34.162 16.02,33.944 15.855,33.482 "/>
<polygon fill="url(#_45)" points="7.201,30.567 5.631,30.989 5.862,31.668 7.441,31.241 "/>
<polygon fill="url(#_45)" points="20.679,27.672 22.265,27.245 22.146,26.537 20.569,26.963 "/>
<rect fill="none" height="44" width="44"/>
</svg>